<?xml version="1.0" standalone="no"?>
<!DOCTYPE svg PUBLIC "-//W3C//DTD SVG 20010904//EN"
 "http://www.w3.org/TR/2001/REC-SVG-20010904/DTD/svg10.dtd">
<svg version="1.0" xmlns="http://www.w3.org/2000/svg"
 width="28.000000pt" height="28.000000pt" viewBox="0 0 28.000000 28.000000"
 preserveAspectRatio="xMidYMid meet">

<g transform="translate(0.000000,28.000000) scale(0.100000,-0.100000)"
fill="#000000" stroke="none">
<path d="M0 140 l0 -140 140 0 140 0 0 140 0 140 -140 0 -140 0 0 -140z m201
95 c19 -12 49 -56 49 -71 0 -7 -16 -14 -35 -16 -34 -4 -35 -3 -48 42 -7 25
-17 45 -22 45 -5 0 -15 -27 -21 -60 -6 -33 -12 -50 -13 -38 -3 49 -24 70 -34
33 -7 -26 -47 -27 -47 -1 0 66 106 107 171 66z m-37 -115 c6 -34 25 -40 33
-10 4 13 14 20 30 20 21 0 23 -3 18 -22 -17 -55 -81 -89 -138 -74 -31 7 -77
54 -77 77 0 14 7 19 29 19 27 0 31 -4 38 -42 5 -23 13 -43 19 -45 12 -4 24 40
24 83 0 34 16 30 24 -6z"/>
</g>
</svg>
